<svg width="15" height="16" viewBox="0 0 15 16" fill="none" xmlns="http://www.w3.org/2000/svg">
<path d="M14.9925 8.1497C14.9925 7.49419 14.9415 7.01584 14.8311 6.51978H7.64986V9.47843H11.8651C11.7801 10.2137 11.3212 11.321 10.3014 12.0651L10.2871 12.1641L12.5576 13.9976L12.7149 14.0139C14.1597 12.6232 14.9925 10.5769 14.9925 8.1497Z" fill="#4285F4"/>
<path d="M7.64951 15.9451C9.71462 15.9451 11.4483 15.2364 12.7146 14.014L10.301 12.0651C9.65515 12.5346 8.78829 12.8623 7.64951 12.8623C5.62688 12.8623 3.9102 11.4716 3.29825 9.54932L3.20855 9.55726L0.847576 11.4618L0.8167 11.5513C2.07447 14.1556 4.65802 15.9451 7.64951 15.9451Z" fill="#34A853"/>
<path d="M3.29797 9.54936C3.13651 9.0533 3.04306 8.52176 3.04306 7.97257C3.04306 7.42332 3.13651 6.89184 3.28948 6.39577L3.2852 6.29013L0.894647 4.35498L0.816433 4.39376C0.298049 5.47449 0.000598907 6.68811 0.000598907 7.97257C0.000598907 9.25703 0.298049 10.4706 0.816433 11.5513L3.29797 9.54936Z" fill="#FBBC05"/>
<path d="M7.64949 3.08269C9.08571 3.08269 10.0545 3.72934 10.6069 4.26974L12.7655 2.07286C11.4398 0.788397 9.71459 0 7.64949 0C4.658 0 2.07446 1.78937 0.8167 4.39371L3.28975 6.39573C3.91019 4.47347 5.62687 3.08269 7.64949 3.08269Z" fill="#EB4335"/>
</svg>
