<svg width="221" height="220" viewBox="0 0 221 220" fill="none" xmlns="http://www.w3.org/2000/svg">
<circle cx="110.524" cy="110" r="110" fill="#F8F8F8"/>
<path d="M146.151 154.523L99.0201 127.421C95.526 125.407 92.6948 120.025 92.6948 115.392V83.5013C92.6948 78.8688 95.526 76.7875 99.0201 78.7457L146.151 105.847C149.645 107.861 152.476 113.244 152.476 117.876V149.767C152.476 154.4 149.645 156.526 146.151 154.523Z" fill="#E8A30A"/>
<path d="M129.489 167.236L150.543 154.692L137.78 125.856L117.961 135.613L129.489 167.236Z" fill="#E8A30A"/>
<path d="M74.5718 90.552L95.3453 78.2097L100.547 116.635L74.5718 90.552Z" fill="#E8A30A"/>
<path d="M125.501 166.832L78.3141 139.73C74.82 137.727 72 132.345 72 127.712V95.7992C72 91.1666 74.82 89.0853 78.3141 91.0435L125.501 118.156C128.984 120.159 131.815 125.542 131.815 130.174V162.065C131.815 166.697 128.984 168.835 125.501 166.832Z" fill="#F9CB07"/>
<path d="M97.7502 90.1151V65.8893C97.7502 56.0535 104.682 52.0699 113.232 56.9375C121.782 61.8498 128.714 73.8116 128.714 83.6362V107.862" stroke="#CC8B09" stroke-width="10.46" stroke-miterlimit="10"/>
<path d="M97.5374 94.2325C101.329 94.2325 104.402 92.464 104.402 90.2825C104.402 88.101 101.329 86.3325 97.5374 86.3325C93.7462 86.3325 90.6729 88.101 90.6729 90.2825C90.6729 92.464 93.7462 94.2325 97.5374 94.2325Z" fill="#CC8B09"/>
<path d="M128.714 110.727C132.505 110.727 135.579 108.958 135.579 106.777C135.579 104.595 132.505 102.827 128.714 102.827C124.923 102.827 121.85 104.595 121.85 106.777C121.85 108.958 124.923 110.727 128.714 110.727Z" fill="#CC8B09"/>
</svg>
